<svg width="720" height="420" viewBox="0 0 720 420" fill="none" xmlns="http://www.w3.org/2000/svg">
  <rect width="720" height="420" fill="white"/>
  <ellipse cx="350" cy="322" rx="286" ry="20" fill="#E5E7EB"/>
  <path d="M83 270C101 241 118 219 142 198C170 174 203 166 242 174L317 190C352 198 386 196 421 187L455 178C474 173 493 179 506 194L557 251C584 257 609 266 636 280C649 287 646 305 631 308C514 332 392 333 265 322C196 316 133 302 83 270Z" fill="#F6F4EC"/>
  <path d="M83 270C135 300 199 315 269 321C394 331 516 330 631 307C641 305 647 297 644 289C611 314 496 325 368 319C236 312 130 292 83 270Z" fill="#E9E5D8"/>
  <path d="M142 198C172 176 205 170 240 177L316 193C351 200 388 198 421 188L455 179C473 174 493 181 505 195L553 249C568 252 585 257 601 263C569 263 542 260 515 254C469 244 440 218 414 205C389 192 355 204 315 209C269 214 224 206 176 194C163 191 152 193 142 198Z" fill="#FAFAF7"/>
  <path d="M242 176L266 117C270 106 283 101 293 107L335 132C352 142 373 145 393 141L464 127C481 124 497 135 501 152L506 194C493 180 474 174 455 179L421 188C386 198 352 200 317 193L242 176Z" fill="#EEECE3"/>
  <path d="M277 118C318 147 362 160 412 154L474 146C481 145 488 149 491 156L502 186" stroke="#D6D3C7" stroke-width="8" stroke-linecap="round"/>
  <path d="M275 190L291 151C294 143 303 140 310 144L349 166C359 172 372 174 384 172L431 165C441 164 451 169 456 178L469 202" stroke="#D9D6CA" stroke-width="7" stroke-linecap="round"/>
  <path d="M286 201L310 160M327 207L354 168M372 208L395 172M418 200L440 169" stroke="#C9C5B8" stroke-width="5" stroke-linecap="round"/>
  <path d="M159 182C147 158 136 132 123 106C116 92 95 98 97 114L116 230C126 216 139 205 142 198C148 192 153 187 159 182Z" fill="#C9333A"/>
  <path d="M126 120L143 188" stroke="#A51F2B" stroke-width="8" stroke-linecap="round"/>
  <path d="M450 151L496 144C511 142 523 154 522 169L520 192C519 203 509 210 499 206L468 194L450 151Z" fill="#B92231"/>
  <path d="M476 159L501 157C507 157 512 162 512 168L511 184" stroke="#8F1724" stroke-width="6" stroke-linecap="round"/>
  <path d="M318 255C358 262 404 261 448 253C466 250 480 234 480 216V204C443 224 396 232 347 228C311 225 276 217 243 205L234 223C255 239 282 249 318 255Z" fill="#FDFDFB"/>
  <path d="M295 268C335 274 397 276 460 267C455 286 443 304 426 317C368 322 312 319 265 312C272 297 281 283 295 268Z" fill="#DEDACE"/>
  <path d="M460 267C497 261 531 255 557 251C584 257 609 266 636 280C647 286 646 303 632 307C576 319 521 326 465 329C482 311 491 291 460 267Z" fill="#D9D4C6"/>
  <path d="M91 259C139 291 213 309 318 318C434 327 551 321 632 307" stroke="#C8C3B7" stroke-width="6" stroke-linecap="round"/>
  <path d="M98 273C137 292 190 305 264 313" stroke="#F9F8F4" stroke-width="9" stroke-linecap="round"/>
  <path d="M513 281C547 279 584 274 624 266" stroke="#F5F2E8" stroke-width="10" stroke-linecap="round"/>
  <path d="M232 180C251 188 273 192 296 196" stroke="#D7D3C6" stroke-width="5" stroke-linecap="round"/>
  <path d="M171 195C154 207 139 221 126 240" stroke="#D7D3C6" stroke-width="5" stroke-linecap="round"/>
</svg>
