<svg width="130" height="25" viewBox="0 0 130 25" fill="none" xmlns="http://www.w3.org/2000/svg">
<g clip-path="url(#clip0_1225_754)">
<path d="M26.2374 7.35003C21.5148 7.35003 17.8248 10.9625 17.8248 15.7985C17.8248 20.6345 21.4216 24.216 26.2374 24.216C31.0532 24.216 34.7126 20.5727 34.7126 15.7676C34.7126 10.9934 31.1158 7.35003 26.2374 7.35003ZM26.2693 20.7308C23.5799 20.7308 21.6092 18.6261 21.6092 15.7997C21.6092 12.9411 23.5481 10.8376 26.2374 10.8376C28.9586 10.8376 30.9282 12.9732 30.9282 15.7997C30.9282 18.6261 28.9586 20.7308 26.2693 20.7308ZM35.744 11.0255H38.0899V23.9033H41.8425V7.66395H35.744V11.0255ZM8.38078 10.8364C10.3515 10.8364 11.9151 12.0612 12.5086 13.8829H16.4807C15.7609 9.98861 12.5712 7.35003 8.41264 7.35003C3.69004 7.35003 0 10.9625 0 15.7997C0 20.6369 3.59682 24.2172 8.41264 24.2172C12.4779 24.2172 15.7302 21.5786 16.45 17.6523H12.5086C11.9457 19.4739 10.3822 20.7308 8.41146 20.7308C5.69024 20.7308 3.78327 18.6261 3.78327 15.7997C3.78445 12.9411 5.66074 10.8364 8.38078 10.8364ZM107.045 14.2289L104.294 13.821C102.98 13.6332 102.042 13.1932 102.042 12.1563C102.042 11.0255 103.262 10.4607 104.919 10.4607C106.733 10.4607 107.89 11.2455 108.141 12.5333H111.768C111.361 9.26684 108.859 7.35122 105.013 7.35122C101.041 7.35122 98.4145 9.39288 98.4145 12.2824C98.4145 15.0458 100.135 16.6487 103.606 17.1505L106.358 17.5583C107.703 17.7462 108.453 18.2813 108.453 19.2861C108.453 20.5738 107.14 21.1077 105.326 21.1077C103.105 21.1077 101.854 20.1969 101.667 18.8152H97.9767C98.3213 21.9877 100.791 24.2172 105.294 24.2172C109.391 24.2172 112.111 22.3325 112.111 19.097C112.111 16.2075 110.142 14.6998 107.045 14.2289ZM39.9662 0.974159C38.5903 0.974159 37.5577 1.97894 37.5577 3.36065C37.5577 4.74237 38.5891 5.74715 39.9662 5.74715C41.3422 5.74715 42.3747 4.74237 42.3747 3.36065C42.3747 1.97894 41.3422 0.974159 39.9662 0.974159ZM95.0372 13.2241C95.0372 9.7068 92.9107 7.35122 88.4076 7.35122C84.1547 7.35122 81.7781 9.51892 81.3084 12.8484H85.0303C85.2179 11.5606 86.2186 10.4928 88.3451 10.4928C90.2533 10.4928 91.1914 11.3406 91.1914 12.3775C91.1914 13.7283 89.4709 14.0731 87.3444 14.2931C84.4674 14.607 80.9025 15.6118 80.9025 19.3812C80.9025 22.3028 83.0608 24.1863 86.5007 24.1863C89.19 24.1863 90.8787 23.0555 91.7236 21.2647C91.8487 22.8664 93.037 23.9033 94.695 23.9033H96.884V20.5429H95.0384V13.2241H95.0372ZM91.3472 17.3074C91.3472 19.4751 89.4709 21.0768 87.1875 21.0768C85.7797 21.0768 84.5913 20.4799 84.5913 19.2242C84.5913 17.6225 86.4995 17.1826 88.2507 16.9947C89.9394 16.8377 90.8775 16.4608 91.3472 15.7378V17.3074ZM71.4266 7.35003C69.3308 7.35003 67.5796 8.22996 66.3287 9.70561V0.8172H62.5762V23.9033H66.2662V21.7677C67.5171 23.3064 69.3001 24.2172 71.4266 24.2172C75.9297 24.2172 79.3389 20.6369 79.3389 15.7997C79.3389 10.9625 75.8672 7.35003 71.4266 7.35003ZM70.8637 20.7308C68.1744 20.7308 66.2037 18.6261 66.2037 15.7997C66.2037 12.9732 68.205 10.8376 70.8944 10.8376C73.6156 10.8376 75.5226 12.9423 75.5226 15.7997C75.5226 18.6261 73.5531 20.7308 70.8637 20.7308ZM53.6006 7.35003C51.1614 7.35003 49.566 8.35481 48.6279 9.76863V7.66395H44.906V23.9021H48.6585V15.0767C48.6585 12.5951 50.2221 10.8364 52.5362 10.8364C54.6945 10.8364 56.0386 12.3751 56.0386 14.6058V23.9033H59.7912V14.324C59.7924 10.2395 57.6978 7.35003 53.6006 7.35003ZM130 15.2658C130 10.6176 126.623 7.35122 122.088 7.35122C117.272 7.35122 113.738 10.9946 113.738 15.7997C113.738 20.8568 117.522 24.2172 122.15 24.2172C126.06 24.2172 129.124 21.8925 129.906 18.5952H125.996C125.433 20.0399 124.057 20.8568 122.212 20.8568C119.803 20.8568 117.989 19.3491 117.583 16.7105H129.999V15.2658H130ZM117.803 14.0089C118.398 11.7473 120.086 10.6486 122.025 10.6486C124.152 10.6486 125.778 11.8733 126.153 14.0089H117.803Z" fill="#09090B"/>
</g>
<defs>
<clipPath id="clip0_1225_754">
<rect width="130" height="23.4" fill="white" transform="translate(0 0.8172)"/>
</clipPath>
</defs>
</svg>
