<svg width="131" height="27" viewBox="0 0 131 27" fill="none" xmlns="http://www.w3.org/2000/svg">
<g clip-path="url(#clip0_1225_798)">
<path d="M15.2799 5.53819L7.73995 10.3425L15.2799 15.1468L7.73995 19.9511L0.199951 15.1208L7.73995 10.3165L0.199951 5.53819L7.73995 0.733887L15.2799 5.53819ZM7.70095 21.4963L15.2409 16.692L22.7809 21.4963L15.2409 26.3005L7.70095 21.4963ZM15.2799 15.1208L22.8199 10.3165L15.2799 5.53819L22.7809 0.733887L30.3209 5.53819L22.7809 10.3425L30.3209 15.1468L22.7809 19.9511L15.2799 15.1208Z" fill="#09090B"/>
<path d="M36.2358 5.53818H42.3328C46.2198 5.53818 49.4308 7.78451 49.4308 12.9134V13.9911C49.4308 19.159 46.4278 21.4833 42.4498 21.4833H36.2358V5.53818ZM39.6418 8.43374V18.5747H42.2548C44.4648 18.5747 45.9468 17.1334 45.9468 13.9262V13.0822C45.9468 9.87503 44.3868 8.43374 42.1378 8.43374H39.6418ZM51.2378 8.58955H53.9678L54.4098 11.589C54.9298 9.55041 56.2558 8.45971 58.6608 8.45971H59.5058V11.9006H58.1018C55.3328 11.9006 54.6568 12.8615 54.6568 15.5882V21.5222H51.2898V8.58955H51.2378ZM60.1818 15.3156V14.952C60.1818 10.6281 62.9508 8.26494 66.7208 8.26494C70.5688 8.26494 73.2598 10.6281 73.2598 14.952V15.3156C73.2598 19.5615 70.6468 21.8468 66.7208 21.8468C62.5478 21.8079 60.1818 19.5745 60.1818 15.3156ZM69.8148 15.2766V14.952C69.8148 12.5499 68.6058 11.1086 66.6818 11.1086C64.7968 11.1086 63.5488 12.433 63.5488 14.952V15.2766C63.5488 17.6009 64.7578 18.9253 66.6818 18.9253C68.6058 18.8863 69.8148 17.6009 69.8148 15.2766ZM75.0278 8.58955H77.8358L78.1608 11.0307C78.8368 9.3946 80.2798 8.26494 82.4119 8.26494C85.7009 8.26494 87.8719 10.6281 87.8719 15.0039V15.3675C87.8719 19.6135 85.4669 21.8598 82.4119 21.8598C80.3708 21.8598 78.9668 20.9379 78.2778 19.4577V25.9889H74.9888L75.0278 8.58955ZM84.4528 15.2766V14.991C84.4528 12.42 83.1268 11.1475 81.3588 11.1475C79.4738 11.1475 78.2258 12.5888 78.2258 14.991V15.2377C78.2258 17.523 79.4348 18.9642 81.3198 18.9642C83.2568 18.9253 84.4528 17.6918 84.4528 15.2766ZM92.8509 19.133L92.5648 21.4962H89.6788V4.26569H92.9678V10.8748C93.6958 9.18685 95.1388 8.26494 97.1798 8.26494C100.274 8.30389 102.562 10.4334 102.562 14.7183V15.1208C102.562 19.4057 100.391 21.8598 97.1019 21.8598C94.9309 21.8079 93.5269 20.8081 92.8509 19.133ZM99.1038 15.1208V14.7962C99.1038 12.433 97.8169 11.1086 96.0098 11.1086C94.1638 11.1086 92.8769 12.5888 92.8769 14.8351V15.1208C92.8769 17.523 94.1249 18.9253 95.9709 18.9253C97.9469 18.9253 99.1038 17.6918 99.1038 15.1208ZM104.005 15.3156V14.952C104.005 10.6281 106.774 8.26494 110.544 8.26494C114.392 8.26494 117.083 10.6281 117.083 14.952V15.3156C117.083 19.5615 114.431 21.8468 110.544 21.8468C106.371 21.8079 104.005 19.5745 104.005 15.3156ZM113.664 15.2766V14.952C113.664 12.5499 112.455 11.1086 110.531 11.1086C108.646 11.1086 107.398 12.433 107.398 14.952V15.2766C107.398 17.6009 108.607 18.9253 110.531 18.9253C112.468 18.8863 113.664 17.6009 113.664 15.2766ZM121.49 14.7962L116.953 8.58955H120.84L123.453 12.4719L126.105 8.58955H129.953L125.351 14.7572L130.2 21.4962H126.391L123.427 17.2113L120.541 21.4962H116.563L121.49 14.7962Z" fill="#09090B"/>
</g>
<defs>
<clipPath id="clip0_1225_798">
<rect width="130" height="25.5667" fill="white" transform="translate(0.199951 0.733887)"/>
</clipPath>
</defs>
</svg>
