<svg width="130" height="31" viewBox="0 0 130 31" fill="none" xmlns="http://www.w3.org/2000/svg">
<g clip-path="url(#clip0_1225_801)">
<path d="M36.9473 24.7057V5.06128H48.8946V8.86343H41.4736V14.1442H48.8946V17.8935H41.4736V24.7057H36.9473Z" fill="#09090B"/>
<path d="M51.8945 24.7057V11.187H56.1577V13.9858C56.3682 13.0352 56.8419 12.2431 57.5261 11.715C58.2103 11.187 58.9998 10.9229 59.8419 10.9229C60.2629 10.9229 60.684 10.9757 60.9472 11.0285V15.0419C60.4208 14.9891 59.9998 14.9363 59.684 14.9363C57.3156 14.9363 56.1577 16.4677 56.1577 19.4249V24.6529H51.8945V24.7057Z" fill="#09090B"/>
<path d="M68.3158 25.0226C66.3684 25.0226 64.7895 24.3361 63.6842 23.0159C62.5263 21.6957 62 19.9531 62 17.8936C62 15.8341 62.5789 14.1442 63.7368 12.7712C64.8947 11.451 66.4737 10.7645 68.3684 10.7645C69.3158 10.7645 70.1579 10.9758 70.8947 11.3982C71.6316 11.8207 72.2105 12.3488 72.5789 13.0881V11.1342H76.8421V24.6529H72.5789V22.7519C72.2105 23.4384 71.6316 23.9664 70.8421 24.3889C70.1053 24.8642 69.2632 25.0226 68.3158 25.0226ZM69.5263 21.4845C70.5263 21.4845 71.3684 21.1676 71.8947 20.4811C72.4211 19.7946 72.7368 18.9497 72.7368 17.9464C72.7368 16.943 72.4737 16.0981 71.8947 15.4116C71.3158 14.7251 70.5263 14.4083 69.5263 14.4083C68.5789 14.4083 67.7895 14.7251 67.2105 15.4116C66.6316 16.0453 66.3158 16.943 66.3158 17.9464C66.3158 19.0025 66.6316 19.8474 67.2105 20.5339C67.7895 21.1676 68.5789 21.4845 69.5263 21.4845Z" fill="#09090B"/>
<path d="M80.3684 24.7057V11.187H84.6316V13.1409C84.9474 12.4544 85.421 11.8735 86.1053 11.451C86.7895 11.0286 87.5789 10.8173 88.4737 10.8173C90.5789 10.8173 92 11.6622 92.6842 13.2993C93.0526 12.56 93.6316 11.9263 94.3684 11.5038C95.1579 11.0286 96 10.8173 96.9474 10.8173C100.158 10.8173 101.737 12.6656 101.737 16.3093V24.7057H97.4211V17.1014C97.4211 15.306 96.7368 14.4611 95.421 14.4611C93.8947 14.4611 93.1579 15.57 93.1579 17.7879V24.7585H88.9474V17.0486C88.9474 15.306 88.2631 14.4082 86.9474 14.4082C86.2105 14.4082 85.6316 14.6723 85.2631 15.1476C84.8947 15.6228 84.6842 16.5205 84.6842 17.7351V24.7057H80.3684Z" fill="#09090B"/>
<path d="M118.474 17.207C118.474 17.7879 118.421 18.3688 118.368 19.1081H108.421C108.474 20.0059 108.737 20.6924 109.316 21.1676C109.895 21.6429 110.632 21.9069 111.579 21.9069C112.895 21.9069 113.737 21.4845 114.105 20.6395H118.316C118.105 21.9597 117.368 23.0687 116.158 23.8608C114.895 24.7057 113.421 25.1282 111.632 25.1282C109.316 25.1282 107.526 24.4945 106.21 23.2271C104.895 21.9597 104.21 20.2171 104.21 17.9464C104.21 15.7284 104.895 13.9858 106.21 12.7184C107.526 11.451 109.316 10.8173 111.474 10.8173C113.579 10.8173 115.263 11.3982 116.579 12.6128C117.789 13.7746 118.474 15.306 118.474 17.207ZM108.368 16.4149H114.21C114.21 15.5172 113.947 14.8307 113.474 14.3554C113 13.8802 112.316 13.6161 111.368 13.6161C110.474 13.6161 109.737 13.8802 109.21 14.4082C108.684 14.9363 108.421 15.6228 108.368 16.4149Z" fill="#09090B"/>
<path d="M120.895 24.7057V11.187H125.158V13.9858C125.368 13.0352 125.842 12.2431 126.526 11.715C127.21 11.187 128 10.9229 128.842 10.9229C129.263 10.9229 129.684 10.9757 129.947 11.0285V15.0419C129.421 14.9891 129 14.9363 128.684 14.9363C126.316 14.9363 125.158 16.4677 125.158 19.4249V24.6529H120.895V24.7057Z" fill="#09090B"/>
<path d="M19.5789 0.783875V10.6061H9.78947L0 0.783875H19.5789ZM0 10.6061H9.78947L19.5789 20.4283H9.78947V30.2505L0 20.4283V10.6061Z" fill="#09090B"/>
</g>
<defs>
<clipPath id="clip0_1225_801">
<rect width="130" height="29.4667" fill="white" transform="translate(0 0.783875)"/>
</clipPath>
</defs>
</svg>
