<svg width="131" height="33" viewBox="0 0 131 33" fill="none" xmlns="http://www.w3.org/2000/svg">
<g clip-path="url(#clip0_1225_768)">
<path d="M51.6116 12.0776H55.7177V24.9932H51.6116V12.0776Z" fill="#09090B"/>
<mask id="mask0_1225_768" style="mask-type:luminance" maskUnits="userSpaceOnUse" x="0" y="0" width="131" height="33">
<path d="M0.399902 0.610214H130.4V32.4241H0.399902V0.610214Z" fill="white"/>
</mask>
<g mask="url(#mask0_1225_768)">
<path d="M56.5752 12.0776H60.5301V13.8434H60.6056C61.5628 12.4559 62.7971 11.6993 64.5858 11.6993C67.407 11.6993 69.0696 13.7173 69.0696 16.593V24.9932H64.9636V17.4255C64.9636 16.0632 64.2834 15.1298 62.9484 15.1298C61.5881 15.1298 60.6812 16.2651 60.6812 17.8542V24.9932H56.5752V12.0776Z" fill="#09090B"/>
<path d="M56.1277 8.62216C56.1277 7.25989 55.0249 6.15569 53.6647 6.15569C52.3044 6.15569 51.2017 7.25989 51.2017 8.62216C51.2017 9.9843 52.3044 11.0885 53.6647 11.0885C55.0249 11.0885 56.1277 9.9843 56.1277 8.62216Z" fill="#09090B"/>
<path d="M97.9479 11.8911C97.8307 11.8805 97.6964 11.8758 97.5392 11.8758C95.9774 11.8758 94.9195 12.5569 94.0125 14.0956H93.9371V12.0776H90.0073V24.993H94.1133V19.1912C94.1133 16.5029 95.6 15.2572 97.9479 15.4746V11.8911Z" fill="#09090B"/>
<path d="M118.098 16.8451C116.46 16.5425 114.999 16.4164 114.999 15.5083C114.999 14.701 115.78 14.3227 116.788 14.3227C117.921 14.3227 118.702 14.6758 118.853 15.8363H122.632C122.43 13.2885 120.466 11.6992 116.813 11.6992C113.765 11.6992 111.246 13.1118 111.246 15.8363C111.246 18.8632 113.639 19.4686 115.881 19.8471C117.594 20.1498 119.156 20.276 119.156 21.4363C119.156 22.2688 118.375 22.7228 117.14 22.7228C115.902 22.7228 115.083 22.1982 114.832 21.1337H110.919C111.207 23.7887 113.535 25.3967 117.166 25.3967C120.541 25.3967 123.035 23.9337 123.035 21.1085C123.035 17.8038 120.365 17.2236 118.098 16.8451Z" fill="#09090B"/>
<path d="M104.317 14.6254C105.652 14.6254 106.61 15.6092 106.761 17.1481H101.672C101.949 15.6092 102.756 14.6254 104.317 14.6254ZM104.544 22.42C102.856 22.42 101.899 21.3354 101.647 19.5948H110.917C110.942 16.9714 110.187 14.7263 108.65 13.3137C107.542 12.3047 106.081 11.6992 104.242 11.6992C100.312 11.6992 97.6167 14.6505 97.6167 18.5102C97.6167 22.42 100.237 25.3716 104.494 25.3716C106.131 25.3716 107.441 24.9427 108.524 24.1859C109.658 23.404 110.413 22.294 110.69 21.1337H106.685C106.332 21.9409 105.627 22.42 104.544 22.42Z" fill="#09090B"/>
<path d="M130.267 21.9476C130.076 21.9551 129.821 21.9661 129.586 21.9661C128.704 21.9661 128.15 21.7138 128.15 20.7048V14.6506H130.267V12.0776H128.15V7.99104H124.145V12.0776H122.885V14.6506H124.145V21.5877C124.145 24.3626 125.858 25.1445 128.251 25.1445C129.164 25.1445 129.854 25.076 130.267 24.9955V21.9476Z" fill="#09090B"/>
<path d="M76.4021 21.9534C76.2383 21.9598 76.0492 21.9661 75.8726 21.9661C74.9911 21.9661 74.4367 21.7138 74.4367 20.7048V14.6506H76.4021V12.0776H74.4367V7.99104H70.4315V12.0776H69.0959V14.6506H70.4315V21.5877C70.4315 24.3626 72.1444 25.1445 74.5375 25.1445C75.3473 25.1445 75.9812 25.0905 76.4021 25.0222V21.9534Z" fill="#09090B"/>
<path d="M85.3458 17.148C85.1947 15.6092 84.2373 14.6253 82.9022 14.6253C81.3404 14.6253 80.5344 15.6092 80.2572 17.148H85.3458ZM76.2017 18.5101C76.2017 14.6506 78.897 11.6993 82.8267 11.6993C84.6655 11.6993 86.1266 12.3047 87.235 13.3137C88.7716 14.7263 89.5272 16.9714 89.5021 19.5949H80.2322C80.4839 21.3354 81.4412 22.4201 83.129 22.4201C84.2121 22.4201 84.9175 21.9408 85.27 21.1337H89.2754C88.9982 22.294 88.2426 23.4039 87.109 24.186C86.0259 24.9427 84.716 25.3715 83.0786 25.3715C78.8214 25.3715 76.2017 22.4201 76.2017 18.5101Z" fill="#09090B"/>
<path d="M44.4807 15.4327C46.093 15.4327 46.9998 14.4741 46.9998 13.0361C46.9998 11.5984 46.0677 10.7155 44.4807 10.7155H41.3318V15.4327H44.4807ZM37.1748 6.95683H44.3051C46.4966 6.95683 48.1088 7.56219 49.2172 8.62172C50.376 9.70632 51.0309 11.2452 51.0309 13.0614C51.0309 16.5173 48.6378 18.9643 44.9348 18.9643H41.3318V24.9932H37.1748V6.95683Z" fill="#09090B"/>
<path d="M31.5385 16.5172C31.5385 25.0909 24.5978 32.0414 16.0361 32.0414C7.47439 32.0414 0.533691 25.0909 0.533691 16.5172C0.533691 7.94335 7.47439 0.993031 16.0361 0.993031C24.5978 0.993031 31.5385 7.94335 31.5385 16.5172Z" fill="white"/>
<path d="M16.0359 0.992785C7.47415 0.992785 0.533447 7.94324 0.533447 16.517C0.533447 23.0938 4.61962 28.7161 10.3864 30.978C10.2509 29.7498 10.1284 27.8608 10.4401 26.5199C10.7219 25.3083 12.258 18.8034 12.258 18.8034C12.258 18.8034 11.7943 17.8734 11.7943 16.4985C11.7943 14.3399 13.0437 12.7283 14.5994 12.7283C15.922 12.7283 16.5608 13.7227 16.5608 14.9151C16.5608 16.2471 15.714 18.2385 15.2769 20.0839C14.9117 21.6291 16.0507 22.8892 17.5726 22.8892C20.3279 22.8892 22.4459 19.9798 22.4459 15.7803C22.4459 12.0633 19.7788 9.46445 15.9704 9.46445C11.5594 9.46445 8.97036 12.7776 8.97036 16.2015C8.97036 17.5358 9.48362 18.9665 10.1241 19.7443C10.2508 19.898 10.2693 20.0327 10.2316 20.1896C10.1139 20.6799 9.8524 21.7343 9.80106 21.9501C9.73346 22.2343 9.57639 22.2946 9.28259 22.1577C7.34644 21.2552 6.1359 18.4205 6.1359 16.1436C6.1359 11.2465 9.68898 6.7492 16.379 6.7492C21.7567 6.7492 25.9359 10.5867 25.9359 15.7153C25.9359 21.0655 22.5672 25.3713 17.8916 25.3713C16.3206 25.3713 14.8439 24.5541 14.3384 23.5887C14.3384 23.5887 13.561 26.5527 13.3726 27.2791C13.0226 28.6275 12.0778 30.3177 11.4458 31.3489C12.8963 31.7986 14.4377 32.0411 16.0359 32.0411C24.5977 32.0411 31.5384 25.0907 31.5384 16.517C31.5384 7.94324 24.5977 0.992785 16.0359 0.992785Z" fill="#09090B"/>
</g>
</g>
<defs>
<clipPath id="clip0_1225_768">
<rect width="130" height="31.8139" fill="white" transform="translate(0.399902 0.610229)"/>
</clipPath>
</defs>
</svg>
