<svg width="131" height="40" viewBox="0 0 131 40" fill="none" xmlns="http://www.w3.org/2000/svg">
<path d="M32.3369 17.3357C26.147 13.6556 15.937 13.3173 10.028 15.1126C9.07906 15.4007 8.07567 14.8645 7.78814 13.9146C7.50061 12.9642 8.03572 11.9603 8.98527 11.6715C15.7684 9.61009 27.0443 10.0084 34.1702 14.2431C35.0239 14.7502 35.3038 15.8537 34.7978 16.7069C34.2915 17.5612 33.1883 17.8429 32.3369 17.3357ZM32.1342 22.7863C31.7001 23.4918 30.7787 23.7129 30.075 23.28C24.9145 20.1043 17.0454 19.1844 10.9401 21.0396C10.1484 21.2791 9.31212 20.8323 9.07172 20.0411C8.83308 19.2485 9.2797 18.4128 10.07 18.1719C17.0445 16.0532 25.7145 17.0793 31.6416 20.7258C32.3454 21.1597 32.5669 22.0826 32.1342 22.7863ZM29.7845 28.021C29.4396 28.5874 28.7026 28.765 28.139 28.4198C23.6296 25.6607 17.9538 25.0374 11.2695 26.5661C10.6253 26.7139 9.98346 26.3097 9.83648 25.665C9.68897 25.0202 10.0911 24.3777 10.7367 24.2306C18.0514 22.5565 24.3261 23.277 29.3875 26.3733C29.9519 26.7182 30.1296 27.4563 29.7845 28.021ZM20.9779 0.293171C10.3728 0.293171 1.77515 8.89983 1.77515 19.5169C1.77515 30.1348 10.3728 38.7413 20.9779 38.7413C31.5836 38.7413 40.1807 30.1348 40.1807 19.5169C40.1807 8.89983 31.5836 0.293171 20.9779 0.293171Z" fill="#09090B"/>
<path d="M54.0193 18.0402C50.7038 17.2487 50.1133 16.6931 50.1133 15.5261C50.1133 14.423 51.1507 13.6811 52.693 13.6811C54.1881 13.6811 55.6703 14.2447 57.2248 15.4049C57.2718 15.44 57.3307 15.454 57.3887 15.4448C57.4468 15.4361 57.4979 15.4044 57.5321 15.3562L59.1509 13.0716C59.2174 12.9777 59.1993 12.8478 59.1097 12.7759C57.2599 11.29 55.1769 10.5676 52.7421 10.5676C49.1622 10.5676 46.6616 12.7181 46.6616 15.7956C46.6616 19.0956 48.8187 20.2639 52.5463 21.1658C55.7189 21.8975 56.2544 22.5103 56.2544 23.6062C56.2544 24.8202 55.1716 25.5751 53.4291 25.5751C51.494 25.5751 49.9152 24.9225 48.1493 23.3915C48.1055 23.3538 48.0455 23.3364 47.99 23.3396C47.9317 23.3444 47.8783 23.3715 47.8412 23.4162L46.026 25.5789C45.9498 25.6687 45.9595 25.8028 46.0473 25.8803C48.1021 27.7166 50.6288 28.6867 53.3557 28.6867C57.2133 28.6867 59.7061 26.5764 59.7061 23.3104C59.7061 20.5503 58.0588 19.0238 54.0193 18.0402Z" fill="#09090B"/>
<path d="M71.2339 21.7395C71.2339 24.0703 69.7998 25.6967 67.7464 25.6967C65.7163 25.6967 64.185 23.9964 64.185 21.7395C64.185 19.483 65.7163 17.7825 67.7464 17.7825C69.7668 17.7825 71.2339 19.4463 71.2339 21.7395ZM68.4336 14.7667C66.7615 14.7667 65.39 15.426 64.2591 16.7769V15.2563C64.2591 15.1363 64.1619 15.0385 64.042 15.0385H61.0734C60.9534 15.0385 60.8564 15.1363 60.8564 15.2563V32.1524C60.8564 32.2725 60.9534 32.3702 61.0734 32.3702H64.042C64.1619 32.3702 64.2591 32.2725 64.2591 32.1524V26.8193C65.3903 28.0901 66.762 28.7108 68.4336 28.7108C71.5405 28.7108 74.6856 26.3165 74.6856 21.7395C74.6856 17.1616 71.5405 14.7667 68.4336 14.7667Z" fill="#09090B"/>
<path d="M82.7476 25.7211C80.6194 25.7211 79.0149 24.0093 79.0149 21.7396C79.0149 19.4604 80.5639 17.8064 82.6985 17.8064C84.8404 17.8064 86.4557 19.5182 86.4557 21.7894C86.4557 24.0683 84.8962 25.7211 82.7476 25.7211ZM82.7476 14.7667C78.7464 14.7667 75.6118 17.8512 75.6118 21.7894C75.6118 25.6848 78.7249 28.7369 82.6985 28.7369C86.7139 28.7369 89.8581 25.6628 89.8581 21.7396C89.8581 17.8295 86.7354 14.7667 82.7476 14.7667Z" fill="#09090B"/>
<path d="M98.4023 15.0385H95.1354V11.6947C95.1354 11.5746 95.0387 11.4771 94.9187 11.4771H91.9504C91.8302 11.4771 91.7325 11.5746 91.7325 11.6947V15.0385H90.3051C90.1854 15.0385 90.0889 15.1363 90.0889 15.2563V17.8106C90.0889 17.9306 90.1854 18.0283 90.3051 18.0283H91.7325V24.6377C91.7325 27.3087 93.0604 28.6628 95.6793 28.6628C96.7442 28.6628 97.6277 28.4427 98.4603 27.9701C98.528 27.9322 98.5702 27.8592 98.5702 27.7816V25.3492C98.5702 25.2741 98.531 25.2034 98.467 25.1639C98.4023 25.1233 98.3218 25.1213 98.2556 25.1541C97.6837 25.4421 97.1308 25.5751 96.5129 25.5751C95.5606 25.5751 95.1354 25.1423 95.1354 24.172V18.0283H98.4023C98.5223 18.0283 98.6188 17.9306 98.6188 17.8106V15.2563C98.6188 15.1363 98.5223 15.0385 98.4023 15.0385Z" fill="#09090B"/>
<path d="M109.784 15.0516V14.6409C109.784 13.4328 110.247 12.894 111.285 12.894C111.904 12.894 112.401 13.017 112.958 13.203C113.026 13.2245 113.098 13.2138 113.154 13.1727C113.211 13.1316 113.243 13.0657 113.243 12.9959V10.4914C113.243 10.3957 113.182 10.311 113.09 10.283C112.502 10.1078 111.749 9.92783 110.622 9.92783C107.88 9.92783 106.431 11.4737 106.431 14.3967V15.0257H105.004C104.885 15.0257 104.787 15.1232 104.787 15.2433V17.8106C104.787 17.9306 104.885 18.0283 105.004 18.0283H106.431V28.2231C106.431 28.3431 106.528 28.4407 106.647 28.4407H109.616C109.736 28.4407 109.833 28.3431 109.833 28.2231V18.0283H112.605L116.851 28.2204C116.369 29.2912 115.895 29.5043 115.248 29.5043C114.725 29.5043 114.174 29.3479 113.611 29.0394C113.558 29.0102 113.496 29.0054 113.438 29.0231C113.382 29.0433 113.334 29.0854 113.31 29.1407L112.304 31.3506C112.256 31.455 112.297 31.5777 112.397 31.6318C113.447 32.2014 114.396 32.4445 115.568 32.4445C117.76 32.4445 118.971 31.422 120.04 28.6719L125.19 15.3482C125.216 15.2812 125.208 15.2056 125.167 15.146C125.126 15.0872 125.061 15.0516 124.989 15.0516H121.898C121.806 15.0516 121.723 15.1104 121.692 15.1974L118.526 24.2508L115.059 15.1914C115.027 15.1072 114.946 15.0516 114.856 15.0516H109.784Z" fill="#09090B"/>
<path d="M103.186 15.0385H100.217C100.097 15.0385 99.9998 15.1363 99.9998 15.2563V28.223C99.9998 28.3431 100.097 28.4407 100.217 28.4407H103.186C103.306 28.4407 103.403 28.3431 103.403 28.223V15.2563C103.403 15.1363 103.306 15.0385 103.186 15.0385Z" fill="#09090B"/>
<path d="M101.717 9.13447C100.541 9.13447 99.5862 10.0878 99.5862 11.265C99.5862 12.4431 100.541 13.3974 101.717 13.3974C102.892 13.3974 103.846 12.4431 103.846 11.265C103.846 10.0878 102.892 9.13447 101.717 9.13447Z" fill="#09090B"/>
<path d="M127.846 16.3283H127.303V17.0228H127.846C128.118 17.0228 128.28 16.8898 128.28 16.6754C128.28 16.4495 128.118 16.3283 127.846 16.3283ZM128.199 17.3189L128.79 18.1473H128.292L127.76 17.3875H127.303V18.1473H126.885V15.9517H127.863C128.373 15.9517 128.708 16.2127 128.708 16.652C128.708 17.0119 128.5 17.2319 128.199 17.3189ZM127.736 15.2212C126.666 15.2212 125.856 16.0727 125.856 17.1157C125.856 18.1581 126.66 18.9983 127.725 18.9983C128.795 18.9983 129.605 18.1473 129.605 17.1038C129.605 16.0614 128.801 15.2212 127.736 15.2212ZM127.725 19.2075C126.55 19.2075 125.636 18.2628 125.636 17.1157C125.636 15.9685 126.562 15.013 127.736 15.013C128.911 15.013 129.825 15.9577 129.825 17.1038C129.825 18.2511 128.9 19.2075 127.725 19.2075Z" fill="#09090B"/>
</svg>
