<svg width="131" height="33" viewBox="0 0 131 33" fill="none" xmlns="http://www.w3.org/2000/svg">
<g clip-path="url(#clip0_1225_813)">
<path d="M42.5771 12.9763C42.5771 10.6583 40.3094 8.19638 36.3851 8.19638C31.9783 8.19638 27.1373 11.4096 26.3974 17.8201C25.6415 24.2945 29.6945 27.172 33.7796 27.172C37.8647 27.172 40.0038 25.5894 42.1911 23.4792C40.3094 21.1292 37.8808 22.2163 37.4144 22.4561C36.8997 22.7119 36.2403 23.0636 34.8893 23.0636C33.3132 23.0636 31.7049 22.3602 31.7049 19.4347C41.8051 18.4436 42.5771 15.2943 42.5771 12.9763ZM37.5752 13.3599C37.5109 14.0793 37.2214 15.3103 32.107 15.9977C33.1845 12.1929 35.2432 11.9052 36.1921 11.9052C37.0767 11.9052 37.6396 12.5926 37.5752 13.3599ZM20.4628 13.9834C20.4628 13.9834 18.2915 20.7616 18.1146 21.3211C18.0503 20.7456 16.4581 8.58005 16.4581 8.58005C12.7589 8.58005 10.7807 11.2018 9.73532 13.9674C9.73532 13.9674 7.09769 20.7616 6.87252 21.3371C6.85644 20.8095 6.47044 14.0473 6.47044 14.0473C6.24528 10.6583 3.12515 8.59604 0.600098 8.59604L3.65589 27.0282C7.53193 27.0122 9.62274 24.4064 10.7164 21.6408C10.7164 21.6408 13.0484 15.646 13.1449 15.3742C13.161 15.63 14.8176 27.0282 14.8176 27.0282C18.7097 27.0282 20.8005 24.5823 21.9263 21.9126L27.3785 8.59604C23.5347 8.59604 21.5082 11.2018 20.4628 13.9834ZM56.8589 8.16441C54.4625 8.16441 52.629 9.45929 51.0851 11.3617V11.3457L52.4682 0.267212C49.2838 0.267212 46.6944 3.01684 46.1958 7.10932L43.7833 26.8843C45.6168 26.8843 47.5629 26.3567 48.6083 25.0139C49.5411 26.2129 50.9403 27.172 53.015 27.172C58.3868 27.172 62.0699 20.9694 62.0699 15.1504C62.0377 9.84296 59.4483 8.16441 56.8589 8.16441ZM56.3603 17.6762C55.7974 20.9214 53.98 23.1275 52.227 23.1275C50.4578 23.1275 49.7019 22.3442 49.7019 22.3442C50.0397 19.4986 50.2487 17.7561 50.8921 16.2534C51.5354 14.7507 53.0633 12.3528 54.6555 12.3528C56.2156 12.3528 56.9232 14.415 56.3603 17.6762ZM75.4832 8.59604H71.7358L71.7519 8.4042C72.0092 5.9743 72.5882 4.6954 74.5021 4.48758C75.8048 4.35969 76.3838 3.68826 76.5286 2.9529C76.6412 2.37739 76.995 0.379115 76.995 0.379115C69.4681 0.331157 67.1039 3.56037 66.4927 8.48413L66.4766 8.59604H66.3962C65.1739 8.59604 63.8229 9.97085 63.5977 11.7133L63.5173 12.3528H66.0263L63.9194 29.6499L63.2761 32.7512C63.3565 32.7512 63.453 32.7672 63.5334 32.7672C67.0556 32.6393 69.3073 29.8737 69.8058 25.8612L71.4463 12.3528H72.6204C73.7784 12.3528 75.1294 11.2018 75.3706 9.28344L75.4832 8.59604ZM94.9759 8.27631C90.6496 8.27631 86.5645 11.4416 85.31 16.4133C84.0555 21.385 85.9533 27.2679 92.3222 27.2679C98.6751 27.2679 102.342 21.1452 102.342 16.0456C102.342 10.978 98.8842 8.27631 94.9759 8.27631ZM96.729 17.5164C96.5038 19.7704 95.5067 23.1915 92.7726 23.1915C90.0223 23.1915 90.4083 19.1949 90.6817 17.2925C90.9712 15.2623 92.1131 12.3688 94.5739 12.3688C96.7773 12.3688 96.9863 14.9745 96.729 17.5164ZM123.717 13.9834C123.717 13.9834 121.545 20.7616 121.368 21.3211C121.304 20.7456 119.712 8.58005 119.712 8.58005C116.013 8.58005 114.034 11.2018 112.989 13.9674C112.989 13.9674 110.351 20.7616 110.126 21.3371C110.11 20.8095 109.724 14.0473 109.724 14.0473C109.499 10.6583 106.379 8.59604 103.854 8.59604L106.894 27.0282C110.77 27.0122 112.86 24.4064 113.954 21.6408C113.954 21.6408 116.286 15.646 116.367 15.3742C116.399 15.63 118.039 27.0282 118.039 27.0282C121.931 27.0282 124.022 24.5823 125.148 21.9126L130.6 8.59604C126.772 8.59604 124.746 11.2018 123.717 13.9834ZM79.0215 0.379115L75.8692 25.6533L75.2259 28.7707C75.3063 28.7707 75.4028 28.7866 75.4832 28.7866C78.8767 28.7387 81.2892 25.7812 81.7395 22.0564L83.5569 7.55693C84.1037 3.12875 81.45 0.379115 79.0215 0.379115Z" fill="#09090B"/>
</g>
<defs>
<clipPath id="clip0_1225_813">
<rect width="130" height="32.5" fill="white" transform="translate(0.600098 0.267212)"/>
</clipPath>
</defs>
</svg>
