<svg width="97" height="22" viewBox="0 0 97 22" fill="none" xmlns="http://www.w3.org/2000/svg">
<path d="M14.9204 5.62868C14.9204 3.19722 14.9204 1.98149 15.4012 1.41854C15.8184 0.930075 16.4442 0.670853 17.0846 0.721253C17.8227 0.779339 18.6823 1.63899 20.4016 3.35829L26.1305 9.08714C26.9252 9.88185 27.3225 10.2792 27.4714 10.7374C27.6024 11.1404 27.6024 11.5746 27.4714 11.9777C27.3225 12.4359 26.9252 12.8332 26.1305 13.6279L20.4016 19.3568C18.6823 21.0761 17.8227 21.9357 17.0846 21.9938C16.4442 22.0442 15.8184 21.785 15.4012 21.2965C14.9204 20.7336 14.9204 19.5178 14.9204 17.0864V5.62868Z" fill="#059669"/>
<path d="M7.4602 5.62868C7.4602 3.19722 7.4602 1.98149 7.941 1.41854C8.35819 0.930075 8.98401 0.670853 9.62441 0.721253C10.3625 0.779339 11.2221 1.63899 12.9414 3.35829L18.6703 9.08714C19.465 9.88185 19.8623 10.2792 20.0112 10.7374C20.1422 11.1404 20.1422 11.5746 20.0112 11.9777C19.8623 12.4359 19.465 12.8332 18.6703 13.6279L12.9414 19.3568C11.2221 21.0761 10.3625 21.9357 9.62441 21.9938C8.98401 22.0442 8.35819 21.785 7.941 21.2965C7.4602 20.7336 7.4602 19.5178 7.4602 17.0864L7.4602 5.62868Z" fill="#065F46"/>
<path d="M0 5.62868C0 3.19722 3.28934e-07 1.98149 0.480808 1.41854C0.897997 0.930075 1.52382 0.670853 2.16421 0.721253C2.90226 0.779339 3.76191 1.63899 5.48121 3.35829L11.2101 9.08714C12.0048 9.88185 12.4021 10.2792 12.551 10.7374C12.682 11.1404 12.682 11.5746 12.551 11.9777C12.4021 12.4359 12.0048 12.8332 11.2101 13.6279L5.48121 19.3568C3.76191 21.0761 2.90226 21.9357 2.16421 21.9938C1.52382 22.0442 0.897997 21.785 0.480808 21.2965C3.28934e-07 20.7336 3.38315e-07 19.5178 3.38315e-07 17.0864L0 5.62868Z" fill="#022C22"/>
<path d="M90.5282 18.0609C89.2838 18.0609 88.2053 17.7871 87.2927 17.2396C86.3801 16.692 85.6722 15.926 85.1689 14.9415C84.6711 13.957 84.4222 12.8066 84.4222 11.4903C84.4222 10.174 84.6711 9.0208 85.1689 8.03078C85.6722 7.04077 86.3801 6.27199 87.2927 5.72444C88.2053 5.17689 89.2838 4.90311 90.5282 4.90311C91.7726 4.90311 92.8511 5.17689 93.7637 5.72444C94.6763 6.27199 95.3815 7.04077 95.8793 8.03078C96.3826 9.0208 96.6342 10.174 96.6342 11.4903C96.6342 12.8066 96.3826 13.957 95.8793 14.9415C95.3815 15.926 94.6763 16.692 93.7637 17.2396C92.8511 17.7871 91.7726 18.0609 90.5282 18.0609ZM90.5448 15.655C91.2196 15.655 91.7837 15.4697 92.2372 15.0992C92.6908 14.7231 93.0281 14.2198 93.2494 13.5892C93.4761 12.9587 93.5895 12.2563 93.5895 11.482C93.5895 10.7022 93.4761 9.99698 93.2494 9.36647C93.0281 8.73043 92.6908 8.22436 92.2372 7.84827C91.7837 7.47217 91.2196 7.28412 90.5448 7.28412C89.8534 7.28412 89.2782 7.47217 88.8192 7.84827C88.3657 8.22436 88.0255 8.73043 87.7988 9.36647C87.5775 9.99698 87.4669 10.7022 87.4669 11.482C87.4669 12.2563 87.5775 12.9587 87.7988 13.5892C88.0255 14.2198 88.3657 14.7231 88.8192 15.0992C89.2782 15.4697 89.8534 15.655 90.5448 15.655Z" fill="#09090B"/>
<path d="M83.1544 8.4373L80.4167 8.73596C80.3392 8.45942 80.2037 8.19947 80.0101 7.95612C79.8221 7.71276 79.5677 7.51642 79.2469 7.36708C78.9261 7.21775 78.5334 7.14309 78.0688 7.14309C77.4439 7.14309 76.9184 7.27859 76.4925 7.5496C76.0722 7.82061 75.8648 8.17182 75.8703 8.60322C75.8648 8.97379 76.0003 9.27521 76.2768 9.50751C76.5589 9.7398 77.0235 9.93061 77.6706 10.0799L79.8442 10.5445C81.0499 10.8045 81.9459 11.2165 82.5322 11.7807C83.124 12.3448 83.4227 13.0832 83.4282 13.9958C83.4227 14.7977 83.1876 15.5057 82.723 16.1196C82.2639 16.728 81.6251 17.2036 80.8066 17.5465C79.988 17.8894 79.0478 18.0609 77.9859 18.0609C76.4262 18.0609 75.1707 17.7346 74.2194 17.082C73.2681 16.4238 72.7012 15.5084 72.5187 14.3359L75.4472 14.0538C75.58 14.629 75.862 15.0632 76.2934 15.3563C76.7248 15.6495 77.2862 15.796 77.9776 15.796C78.691 15.796 79.2635 15.6495 79.6949 15.3563C80.1318 15.0632 80.3503 14.7009 80.3503 14.2695C80.3503 13.9045 80.2093 13.6031 79.9272 13.3652C79.6506 13.1274 79.2192 12.9449 78.633 12.8177L76.4594 12.3614C75.2371 12.107 74.3328 11.6784 73.7465 11.0755C73.1602 10.4671 72.8699 9.69832 72.8754 8.76914C72.8699 7.98377 73.0828 7.30348 73.5142 6.72828C73.9511 6.14754 74.5568 5.69955 75.3311 5.38429C76.1109 5.0635 77.0097 4.90311 78.0273 4.90311C79.5207 4.90311 80.696 5.22113 81.5532 5.85717C82.416 6.49322 82.9498 7.35326 83.1544 8.4373Z" fill="#09090B"/>
<path d="M67.9255 17.812V5.06899H70.9288V17.812H67.9255ZM69.4354 3.26041C68.9598 3.26041 68.5505 3.10278 68.2076 2.78753C67.8647 2.46674 67.6932 2.08235 67.6932 1.63435C67.6932 1.18083 67.8647 0.796436 68.2076 0.48118C68.5505 0.160393 68.9598 0 69.4354 0C69.9166 0 70.3259 0.160393 70.6633 0.48118C71.0062 0.796436 71.1777 1.18083 71.1777 1.63435C71.1777 2.08235 71.0062 2.46674 70.6633 2.78753C70.3259 3.10278 69.9166 3.26041 69.4354 3.26041Z" fill="#09090B"/>
<path d="M47.8935 17.812V5.06903H50.764V7.23435H50.9133C51.1788 6.50428 51.6185 5.93461 52.2324 5.52533C52.8464 5.11052 53.5792 4.90311 54.4309 4.90311C55.2937 4.90311 56.021 5.11328 56.6128 5.53362C57.2102 5.94843 57.6305 6.51534 57.8739 7.23435H58.0066C58.2887 6.5264 58.7643 5.96226 59.4336 5.54192C60.1083 5.11605 60.9075 4.90311 61.8312 4.90311C63.0037 4.90311 63.9605 5.27367 64.7017 6.0148C65.4428 6.75593 65.8133 7.8372 65.8133 9.25862V17.812H62.8018V9.72321C62.8018 8.9323 62.5917 8.35433 62.1713 7.9893C61.751 7.61874 61.2366 7.43345 60.6282 7.43345C59.9037 7.43345 59.3368 7.66022 58.9275 8.11375C58.5237 8.56174 58.3219 9.14524 58.3219 9.86424V17.812H55.3767V9.59877C55.3767 8.9406 55.1776 8.41517 54.7794 8.02249C54.3867 7.6298 53.8723 7.43345 53.2363 7.43345C52.8049 7.43345 52.4122 7.54407 52.0582 7.7653C51.7043 7.981 51.4222 8.28796 51.212 8.68618C51.0018 9.07887 50.8968 9.53793 50.8968 10.0634V17.812H47.8935Z" fill="#09090B"/>
<path d="M38.8415 18.036C37.8404 18.036 36.9444 17.7788 36.1535 17.2645C35.3626 16.7501 34.7376 16.0034 34.2786 15.0245C33.8195 14.0455 33.59 12.8564 33.59 11.4571C33.59 10.0412 33.8223 8.84658 34.2869 7.87315C34.757 6.8942 35.3903 6.15584 36.1867 5.65807C36.9831 5.15476 37.8708 4.90311 38.8498 4.90311C39.5964 4.90311 40.2104 5.03032 40.6915 5.28474C41.1727 5.53362 41.5544 5.83505 41.8364 6.18902C42.1185 6.53746 42.337 6.86655 42.4918 7.17627H42.6163V5.06903H45.6278V17.812H42.6743V15.8043H42.4918C42.337 16.1141 42.113 16.4431 41.8198 16.7916C41.5267 17.1345 41.1395 17.4276 40.6584 17.671C40.1772 17.9143 39.5716 18.036 38.8415 18.036ZM39.6794 15.572C40.3155 15.572 40.8575 15.4006 41.3055 15.0577C41.7535 14.7092 42.0936 14.2253 42.3259 13.6058C42.5582 12.9864 42.6743 12.2646 42.6743 11.4405C42.6743 10.6164 42.5582 9.90019 42.3259 9.29181C42.0991 8.68342 41.7618 8.21053 41.3138 7.87315C40.8713 7.53577 40.3265 7.36708 39.6794 7.36708C39.0102 7.36708 38.4516 7.54131 38.0036 7.88975C37.5556 8.23819 37.2182 8.71937 36.9914 9.33329C36.7647 9.94721 36.6513 10.6496 36.6513 11.4405C36.6513 12.237 36.7647 12.9477 36.9914 13.5727C37.2237 14.1921 37.5639 14.6816 38.0119 15.0411C38.4654 15.3951 39.0212 15.572 39.6794 15.572Z" fill="#09090B"/>
</svg>
